<svg width="164" height="164" viewBox="0 0 164 164" fill="none" xmlns="http://www.w3.org/2000/svg">
<path d="M81.7271 163.143H81.3683C36.5023 163.143 0 126.63 0 81.7511L0 81.3922C0 36.513 36.5023 0 81.3683 0L81.7271 0C126.593 0 163.095 36.513 163.095 81.3922V81.7511C163.095 126.63 126.593 163.143 81.7271 163.143ZM81.3683 5.52224C39.5441 5.52224 5.52061 39.5558 5.52061 81.3922V81.7511C5.52061 123.588 39.5441 157.621 81.3683 157.621H81.7271C123.551 157.621 157.575 123.588 157.575 81.7511V81.3922C157.575 39.5558 123.551 5.52224 81.7271 5.52224H81.3683Z" fill="#383D38"/>
<path d="M34.7192 38.4459L71.0558 87.0416L34.4928 126.553H42.724L74.7381 91.9619L100.602 126.553L128.608 126.553L90.2289 75.224L124.263 38.4459H116.032L86.5521 70.3037L62.7307 38.4459H34.7246H34.7192ZM46.8203 44.5093H59.6833L116.496 120.49H103.633L46.8203 44.5093Z" fill="#383D38"/>
</svg>
